<svg xmlns="http://www.w3.org/2000/svg" width="1024" height="1024" viewBox="0 0 1024 1024" role="img" aria-labelledby="title desc">
  <title id="title">Filecoin Dead Drop logo</title>
  <desc id="desc">A green square logo with a Filecoin dead drop mark and CID key.</desc>
  <rect width="1024" height="1024" rx="168" fill="#0F2C23"/>
  <rect x="96" y="96" width="832" height="832" rx="120" fill="#DCE8A6"/>
  <path d="M256 348c0-58 47-105 105-105h302c58 0 105 47 105 105v328c0 58-47 105-105 105H361c-58 0-105-47-105-105V348Z" fill="#FBFFF2" stroke="#0F2C23" stroke-width="32"/>
  <path d="M363 449h298M363 528h212M363 607h298" stroke="#0F2C23" stroke-width="42" stroke-linecap="round"/>
  <circle cx="679" cy="615" r="83" fill="#0F2C23"/>
  <circle cx="679" cy="615" r="31" fill="#E2FEA5"/>
  <path d="M731 667l70 70M785 721l-29 29M825 761l-29 29" stroke="#0F2C23" stroke-width="38" stroke-linecap="round"/>
  <text x="512" y="190" text-anchor="middle" font-family="Inter, Arial, sans-serif" font-size="72" font-weight="900" fill="#0F2C23">DEAD DROP</text>
  <text x="512" y="882" text-anchor="middle" font-family="Inter, Arial, sans-serif" font-size="48" font-weight="800" fill="#0F2C23">PIECECID KEY</text>
</svg>
